<!--?xml version="1.0" standalone="no"?-->
<svg id="sw-js-blob-svg" viewBox="0 0 100 100" xmlns="http://www.w3.org/2000/svg">
    <defs>
        <linearGradient id="sw-gradient" x1="0" x2="1" y1="1" y2="0">
            <stop id="stop1" stop-color="rgba(91, 235, 92, 1)" offset="0%"></stop>
            <stop id="stop2" stop-color="rgba(235, 224, 138, 1)" offset="100%"></stop>
        </linearGradient>
    </defs>
    <path fill="url(#sw-gradient)"
          d="M7.6,-9.6C11.2,-9.6,16.2,-9.6,18.8,-7.5C21.5,-5.4,21.7,-1.1,23.7,5.3C25.6,11.6,29.3,20.1,26.8,23.4C24.3,26.7,15.5,24.8,9.4,21.9C3.4,19.1,0,15.2,-6.9,16.4C-13.8,17.6,-24.2,23.8,-26.3,22.3C-28.3,20.8,-21.9,11.5,-18.5,5.4C-15,-0.6,-14.4,-3.5,-16.2,-10.6C-17.9,-17.7,-21.9,-29,-19.6,-29.6C-17.3,-30.1,-8.7,-19.9,-3.3,-14.7C2,-9.6,4.1,-9.5,7.6,-9.6Z"
          width="100%" height="100%" transform="translate(50 50)" stroke-width="0" style="transition: all 0.3s ease 0s;"
          stroke="url(#sw-gradient)"></path>
</svg>